<?xml version="1.0" encoding="utf-8" standalone="no"?>
<!DOCTYPE svg PUBLIC "-//W3C//DTD SVG 1.1//EN"
  "http://www.w3.org/Graphics/SVG/1.1/DTD/svg11.dtd">
<!-- Created with matplotlib (https://matplotlib.org/) -->
<svg height="360pt" version="1.1" viewBox="0 0 360 360" width="360pt" xmlns="http://www.w3.org/2000/svg" xmlns:xlink="http://www.w3.org/1999/xlink">
 <metadata>
  <rdf:RDF xmlns:cc="http://creativecommons.org/ns#" xmlns:dc="http://purl.org/dc/elements/1.1/" xmlns:rdf="http://www.w3.org/1999/02/22-rdf-syntax-ns#">
   <cc:Work>
    <dc:type rdf:resource="http://purl.org/dc/dcmitype/StillImage"/>
    <dc:date>2022-07-18T16:07:02.735758</dc:date>
    <dc:format>image/svg+xml</dc:format>
    <dc:creator>
     <cc:Agent>
      <dc:title>Matplotlib v3.3.4, https://matplotlib.org/</dc:title>
     </cc:Agent>
    </dc:creator>
   </cc:Work>
  </rdf:RDF>
 </metadata>
 <defs>
  <style type="text/css">*{stroke-linecap:butt;stroke-linejoin:round;}</style>
 </defs>
 <g id="figure_1">
  <g id="patch_1">
   <path d="M 0 360 
L 360 360 
L 360 0 
L 0 0 
z
" style="fill:none;"/>
  </g>
  <g id="axes_1">
   <g id="patch_2">
    <path d="M 45 315 
L 324 315 
L 324 43.2 
L 45 43.2 
z
" style="fill:#ffffff;"/>
   </g>
   <g id="matplotlib.axis_1">
    <g id="xtick_1">
     <g id="line2d_1">
      <defs>
       <path d="M 0 0 
L 0 3.5 
" id="m645faeff11" style="stroke:#000000;stroke-width:0.8;"/>
      </defs>
      <g>
       <use style="stroke:#000000;stroke-width:0.8;" x="45" xlink:href="#m645faeff11" y="315"/>
      </g>
     </g>
     <g id="text_1">
      <!-- 0 -->
      <g transform="translate(40.228125 333.397656)scale(0.15 -0.15)">
       <defs>
        <path d="M 31.78125 66.40625 
Q 24.171875 66.40625 20.328125 58.90625 
Q 16.5 51.421875 16.5 36.375 
Q 16.5 21.390625 20.328125 13.890625 
Q 24.171875 6.390625 31.78125 6.390625 
Q 39.453125 6.390625 43.28125 13.890625 
Q 47.125 21.390625 47.125 36.375 
Q 47.125 51.421875 43.28125 58.90625 
Q 39.453125 66.40625 31.78125 66.40625 
z
M 31.78125 74.21875 
Q 44.046875 74.21875 50.515625 64.515625 
Q 56.984375 54.828125 56.984375 36.375 
Q 56.984375 17.96875 50.515625 8.265625 
Q 44.046875 -1.421875 31.78125 -1.421875 
Q 19.53125 -1.421875 13.0625 8.265625 
Q 6.59375 17.96875 6.59375 36.375 
Q 6.59375 54.828125 13.0625 64.515625 
Q 19.53125 74.21875 31.78125 74.21875 
z
" id="DejaVuSans-48"/>
       </defs>
       <use xlink:href="#DejaVuSans-48"/>
      </g>
     </g>
    </g>
    <g id="xtick_2">
     <g id="line2d_2">
      <g>
       <use style="stroke:#000000;stroke-width:0.8;" x="114.75" xlink:href="#m645faeff11" y="315"/>
      </g>
     </g>
     <g id="text_2">
      <!-- 20 -->
      <g transform="translate(105.20625 333.397656)scale(0.15 -0.15)">
       <defs>
        <path d="M 19.1875 8.296875 
L 53.609375 8.296875 
L 53.609375 0 
L 7.328125 0 
L 7.328125 8.296875 
Q 12.9375 14.109375 22.625 23.890625 
Q 32.328125 33.6875 34.8125 36.53125 
Q 39.546875 41.84375 41.421875 45.53125 
Q 43.3125 49.21875 43.3125 52.78125 
Q 43.3125 58.59375 39.234375 62.25 
Q 35.15625 65.921875 28.609375 65.921875 
Q 23.96875 65.921875 18.8125 64.3125 
Q 13.671875 62.703125 7.8125 59.421875 
L 7.8125 69.390625 
Q 13.765625 71.78125 18.9375 73 
Q 24.125 74.21875 28.421875 74.21875 
Q 39.75 74.21875 46.484375 68.546875 
Q 53.21875 62.890625 53.21875 53.421875 
Q 53.21875 48.921875 51.53125 44.890625 
Q 49.859375 40.875 45.40625 35.40625 
Q 44.1875 33.984375 37.640625 27.21875 
Q 31.109375 20.453125 19.1875 8.296875 
z
" id="DejaVuSans-50"/>
       </defs>
       <use xlink:href="#DejaVuSans-50"/>
       <use x="63.623047" xlink:href="#DejaVuSans-48"/>
      </g>
     </g>
    </g>
    <g id="xtick_3">
     <g id="line2d_3">
      <g>
       <use style="stroke:#000000;stroke-width:0.8;" x="184.5" xlink:href="#m645faeff11" y="315"/>
      </g>
     </g>
     <g id="text_3">
      <!-- 40 -->
      <g transform="translate(174.95625 333.397656)scale(0.15 -0.15)">
       <defs>
        <path d="M 37.796875 64.3125 
L 12.890625 25.390625 
L 37.796875 25.390625 
z
M 35.203125 72.90625 
L 47.609375 72.90625 
L 47.609375 25.390625 
L 58.015625 25.390625 
L 58.015625 17.1875 
L 47.609375 17.1875 
L 47.609375 0 
L 37.796875 0 
L 37.796875 17.1875 
L 4.890625 17.1875 
L 4.890625 26.703125 
z
" id="DejaVuSans-52"/>
       </defs>
       <use xlink:href="#DejaVuSans-52"/>
       <use x="63.623047" xlink:href="#DejaVuSans-48"/>
      </g>
     </g>
    </g>
    <g id="xtick_4">
     <g id="line2d_4">
      <g>
       <use style="stroke:#000000;stroke-width:0.8;" x="254.25" xlink:href="#m645faeff11" y="315"/>
      </g>
     </g>
     <g id="text_4">
      <!-- 60 -->
      <g transform="translate(244.70625 333.397656)scale(0.15 -0.15)">
       <defs>
        <path d="M 33.015625 40.375 
Q 26.375 40.375 22.484375 35.828125 
Q 18.609375 31.296875 18.609375 23.390625 
Q 18.609375 15.53125 22.484375 10.953125 
Q 26.375 6.390625 33.015625 6.390625 
Q 39.65625 6.390625 43.53125 10.953125 
Q 47.40625 15.53125 47.40625 23.390625 
Q 47.40625 31.296875 43.53125 35.828125 
Q 39.65625 40.375 33.015625 40.375 
z
M 52.59375 71.296875 
L 52.59375 62.3125 
Q 48.875 64.0625 45.09375 64.984375 
Q 41.3125 65.921875 37.59375 65.921875 
Q 27.828125 65.921875 22.671875 59.328125 
Q 17.53125 52.734375 16.796875 39.40625 
Q 19.671875 43.65625 24.015625 45.921875 
Q 28.375 48.1875 33.59375 48.1875 
Q 44.578125 48.1875 50.953125 41.515625 
Q 57.328125 34.859375 57.328125 23.390625 
Q 57.328125 12.15625 50.6875 5.359375 
Q 44.046875 -1.421875 33.015625 -1.421875 
Q 20.359375 -1.421875 13.671875 8.265625 
Q 6.984375 17.96875 6.984375 36.375 
Q 6.984375 53.65625 15.1875 63.9375 
Q 23.390625 74.21875 37.203125 74.21875 
Q 40.921875 74.21875 44.703125 73.484375 
Q 48.484375 72.75 52.59375 71.296875 
z
" id="DejaVuSans-54"/>
       </defs>
       <use xlink:href="#DejaVuSans-54"/>
       <use x="63.623047" xlink:href="#DejaVuSans-48"/>
      </g>
     </g>
    </g>
    <g id="xtick_5">
     <g id="line2d_5">
      <g>
       <use style="stroke:#000000;stroke-width:0.8;" x="324" xlink:href="#m645faeff11" y="315"/>
      </g>
     </g>
     <g id="text_5">
      <!-- 80 -->
      <g transform="translate(314.45625 333.397656)scale(0.15 -0.15)">
       <defs>
        <path d="M 31.78125 34.625 
Q 24.75 34.625 20.71875 30.859375 
Q 16.703125 27.09375 16.703125 20.515625 
Q 16.703125 13.921875 20.71875 10.15625 
Q 24.75 6.390625 31.78125 6.390625 
Q 38.8125 6.390625 42.859375 10.171875 
Q 46.921875 13.96875 46.921875 20.515625 
Q 46.921875 27.09375 42.890625 30.859375 
Q 38.875 34.625 31.78125 34.625 
z
M 21.921875 38.8125 
Q 15.578125 40.375 12.03125 44.71875 
Q 8.5 49.078125 8.5 55.328125 
Q 8.5 64.0625 14.71875 69.140625 
Q 20.953125 74.21875 31.78125 74.21875 
Q 42.671875 74.21875 48.875 69.140625 
Q 55.078125 64.0625 55.078125 55.328125 
Q 55.078125 49.078125 51.53125 44.71875 
Q 48 40.375 41.703125 38.8125 
Q 48.828125 37.15625 52.796875 32.3125 
Q 56.78125 27.484375 56.78125 20.515625 
Q 56.78125 9.90625 50.3125 4.234375 
Q 43.84375 -1.421875 31.78125 -1.421875 
Q 19.734375 -1.421875 13.25 4.234375 
Q 6.78125 9.90625 6.78125 20.515625 
Q 6.78125 27.484375 10.78125 32.3125 
Q 14.796875 37.15625 21.921875 38.8125 
z
M 18.3125 54.390625 
Q 18.3125 48.734375 21.84375 45.5625 
Q 25.390625 42.390625 31.78125 42.390625 
Q 38.140625 42.390625 41.71875 45.5625 
Q 45.3125 48.734375 45.3125 54.390625 
Q 45.3125 60.0625 41.71875 63.234375 
Q 38.140625 66.40625 31.78125 66.40625 
Q 25.390625 66.40625 21.84375 63.234375 
Q 18.3125 60.0625 18.3125 54.390625 
z
" id="DejaVuSans-56"/>
       </defs>
       <use xlink:href="#DejaVuSans-56"/>
       <use x="63.623047" xlink:href="#DejaVuSans-48"/>
      </g>
     </g>
    </g>
    <g id="text_6">
     <!-- Temperature [°C] -->
     <g transform="translate(119.772656 351.914844)scale(0.15 -0.15)">
      <defs>
       <path d="M -0.296875 72.90625 
L 61.375 72.90625 
L 61.375 64.59375 
L 35.5 64.59375 
L 35.5 0 
L 25.59375 0 
L 25.59375 64.59375 
L -0.296875 64.59375 
z
" id="DejaVuSans-84"/>
       <path d="M 56.203125 29.59375 
L 56.203125 25.203125 
L 14.890625 25.203125 
Q 15.484375 15.921875 20.484375 11.0625 
Q 25.484375 6.203125 34.421875 6.203125 
Q 39.59375 6.203125 44.453125 7.46875 
Q 49.3125 8.734375 54.109375 11.28125 
L 54.109375 2.78125 
Q 49.265625 0.734375 44.1875 -0.34375 
Q 39.109375 -1.421875 33.890625 -1.421875 
Q 20.796875 -1.421875 13.15625 6.1875 
Q 5.515625 13.8125 5.515625 26.8125 
Q 5.515625 40.234375 12.765625 48.109375 
Q 20.015625 56 32.328125 56 
Q 43.359375 56 49.78125 48.890625 
Q 56.203125 41.796875 56.203125 29.59375 
z
M 47.21875 32.234375 
Q 47.125 39.59375 43.09375 43.984375 
Q 39.0625 48.390625 32.421875 48.390625 
Q 24.90625 48.390625 20.390625 44.140625 
Q 15.875 39.890625 15.1875 32.171875 
z
" id="DejaVuSans-101"/>
       <path d="M 52 44.1875 
Q 55.375 50.25 60.0625 53.125 
Q 64.75 56 71.09375 56 
Q 79.640625 56 84.28125 50.015625 
Q 88.921875 44.046875 88.921875 33.015625 
L 88.921875 0 
L 79.890625 0 
L 79.890625 32.71875 
Q 79.890625 40.578125 77.09375 44.375 
Q 74.3125 48.1875 68.609375 48.1875 
Q 61.625 48.1875 57.5625 43.546875 
Q 53.515625 38.921875 53.515625 30.90625 
L 53.515625 0 
L 44.484375 0 
L 44.484375 32.71875 
Q 44.484375 40.625 41.703125 44.40625 
Q 38.921875 48.1875 33.109375 48.1875 
Q 26.21875 48.1875 22.15625 43.53125 
Q 18.109375 38.875 18.109375 30.90625 
L 18.109375 0 
L 9.078125 0 
L 9.078125 54.6875 
L 18.109375 54.6875 
L 18.109375 46.1875 
Q 21.1875 51.21875 25.484375 53.609375 
Q 29.78125 56 35.6875 56 
Q 41.65625 56 45.828125 52.96875 
Q 50 49.953125 52 44.1875 
z
" id="DejaVuSans-109"/>
       <path d="M 18.109375 8.203125 
L 18.109375 -20.796875 
L 9.078125 -20.796875 
L 9.078125 54.6875 
L 18.109375 54.6875 
L 18.109375 46.390625 
Q 20.953125 51.265625 25.265625 53.625 
Q 29.59375 56 35.59375 56 
Q 45.5625 56 51.78125 48.09375 
Q 58.015625 40.1875 58.015625 27.296875 
Q 58.015625 14.40625 51.78125 6.484375 
Q 45.5625 -1.421875 35.59375 -1.421875 
Q 29.59375 -1.421875 25.265625 0.953125 
Q 20.953125 3.328125 18.109375 8.203125 
z
M 48.6875 27.296875 
Q 48.6875 37.203125 44.609375 42.84375 
Q 40.53125 48.484375 33.40625 48.484375 
Q 26.265625 48.484375 22.1875 42.84375 
Q 18.109375 37.203125 18.109375 27.296875 
Q 18.109375 17.390625 22.1875 11.75 
Q 26.265625 6.109375 33.40625 6.109375 
Q 40.53125 6.109375 44.609375 11.75 
Q 48.6875 17.390625 48.6875 27.296875 
z
" id="DejaVuSans-112"/>
       <path d="M 41.109375 46.296875 
Q 39.59375 47.171875 37.8125 47.578125 
Q 36.03125 48 33.890625 48 
Q 26.265625 48 22.1875 43.046875 
Q 18.109375 38.09375 18.109375 28.8125 
L 18.109375 0 
L 9.078125 0 
L 9.078125 54.6875 
L 18.109375 54.6875 
L 18.109375 46.1875 
Q 20.953125 51.171875 25.484375 53.578125 
Q 30.03125 56 36.53125 56 
Q 37.453125 56 38.578125 55.875 
Q 39.703125 55.765625 41.0625 55.515625 
z
" id="DejaVuSans-114"/>
       <path d="M 34.28125 27.484375 
Q 23.390625 27.484375 19.1875 25 
Q 14.984375 22.515625 14.984375 16.5 
Q 14.984375 11.71875 18.140625 8.90625 
Q 21.296875 6.109375 26.703125 6.109375 
Q 34.1875 6.109375 38.703125 11.40625 
Q 43.21875 16.703125 43.21875 25.484375 
L 43.21875 27.484375 
z
M 52.203125 31.203125 
L 52.203125 0 
L 43.21875 0 
L 43.21875 8.296875 
Q 40.140625 3.328125 35.546875 0.953125 
Q 30.953125 -1.421875 24.3125 -1.421875 
Q 15.921875 -1.421875 10.953125 3.296875 
Q 6 8.015625 6 15.921875 
Q 6 25.140625 12.171875 29.828125 
Q 18.359375 34.515625 30.609375 34.515625 
L 43.21875 34.515625 
L 43.21875 35.40625 
Q 43.21875 41.609375 39.140625 45 
Q 35.0625 48.390625 27.6875 48.390625 
Q 23 48.390625 18.546875 47.265625 
Q 14.109375 46.140625 10.015625 43.890625 
L 10.015625 52.203125 
Q 14.9375 54.109375 19.578125 55.046875 
Q 24.21875 56 28.609375 56 
Q 40.484375 56 46.34375 49.84375 
Q 52.203125 43.703125 52.203125 31.203125 
z
" id="DejaVuSans-97"/>
       <path d="M 18.3125 70.21875 
L 18.3125 54.6875 
L 36.8125 54.6875 
L 36.8125 47.703125 
L 18.3125 47.703125 
L 18.3125 18.015625 
Q 18.3125 11.328125 20.140625 9.421875 
Q 21.96875 7.515625 27.59375 7.515625 
L 36.8125 7.515625 
L 36.8125 0 
L 27.59375 0 
Q 17.1875 0 13.234375 3.875 
Q 9.28125 7.765625 9.28125 18.015625 
L 9.28125 47.703125 
L 2.6875 47.703125 
L 2.6875 54.6875 
L 9.28125 54.6875 
L 9.28125 70.21875 
z
" id="DejaVuSans-116"/>
       <path d="M 8.5 21.578125 
L 8.5 54.6875 
L 17.484375 54.6875 
L 17.484375 21.921875 
Q 17.484375 14.15625 20.5 10.265625 
Q 23.53125 6.390625 29.59375 6.390625 
Q 36.859375 6.390625 41.078125 11.03125 
Q 45.3125 15.671875 45.3125 23.6875 
L 45.3125 54.6875 
L 54.296875 54.6875 
L 54.296875 0 
L 45.3125 0 
L 45.3125 8.40625 
Q 42.046875 3.421875 37.71875 1 
Q 33.40625 -1.421875 27.6875 -1.421875 
Q 18.265625 -1.421875 13.375 4.4375 
Q 8.5 10.296875 8.5 21.578125 
z
M 31.109375 56 
z
" id="DejaVuSans-117"/>
       <path id="DejaVuSans-32"/>
       <path d="M 8.59375 75.984375 
L 29.296875 75.984375 
L 29.296875 69 
L 17.578125 69 
L 17.578125 -6.203125 
L 29.296875 -6.203125 
L 29.296875 -13.1875 
L 8.59375 -13.1875 
z
" id="DejaVuSans-91"/>
       <path d="M 25 67.921875 
Q 21.09375 67.921875 18.40625 65.203125 
Q 15.71875 62.5 15.71875 58.59375 
Q 15.71875 54.734375 18.40625 52.078125 
Q 21.09375 49.421875 25 49.421875 
Q 28.90625 49.421875 31.59375 52.078125 
Q 34.28125 54.734375 34.28125 58.59375 
Q 34.28125 62.453125 31.5625 65.1875 
Q 28.859375 67.921875 25 67.921875 
z
M 25 74.21875 
Q 28.125 74.21875 31 73.015625 
Q 33.890625 71.828125 35.984375 69.578125 
Q 38.234375 67.390625 39.359375 64.59375 
Q 40.484375 61.8125 40.484375 58.59375 
Q 40.484375 52.15625 35.96875 47.6875 
Q 31.453125 43.21875 24.90625 43.21875 
Q 18.3125 43.21875 13.90625 47.609375 
Q 9.515625 52 9.515625 58.59375 
Q 9.515625 65.140625 14 69.671875 
Q 18.5 74.21875 25 74.21875 
z
" id="DejaVuSans-176"/>
       <path d="M 64.40625 67.28125 
L 64.40625 56.890625 
Q 59.421875 61.53125 53.78125 63.8125 
Q 48.140625 66.109375 41.796875 66.109375 
Q 29.296875 66.109375 22.65625 58.46875 
Q 16.015625 50.828125 16.015625 36.375 
Q 16.015625 21.96875 22.65625 14.328125 
Q 29.296875 6.6875 41.796875 6.6875 
Q 48.140625 6.6875 53.78125 8.984375 
Q 59.421875 11.28125 64.40625 15.921875 
L 64.40625 5.609375 
Q 59.234375 2.09375 53.4375 0.328125 
Q 47.65625 -1.421875 41.21875 -1.421875 
Q 24.65625 -1.421875 15.125 8.703125 
Q 5.609375 18.84375 5.609375 36.375 
Q 5.609375 53.953125 15.125 64.078125 
Q 24.65625 74.21875 41.21875 74.21875 
Q 47.75 74.21875 53.53125 72.484375 
Q 59.328125 70.75 64.40625 67.28125 
z
" id="DejaVuSans-67"/>
       <path d="M 30.421875 75.984375 
L 30.421875 -13.1875 
L 9.71875 -13.1875 
L 9.71875 -6.203125 
L 21.390625 -6.203125 
L 21.390625 69 
L 9.71875 69 
L 9.71875 75.984375 
z
" id="DejaVuSans-93"/>
      </defs>
      <use xlink:href="#DejaVuSans-84"/>
      <use x="44.083984" xlink:href="#DejaVuSans-101"/>
      <use x="105.607422" xlink:href="#DejaVuSans-109"/>
      <use x="203.019531" xlink:href="#DejaVuSans-112"/>
      <use x="266.496094" xlink:href="#DejaVuSans-101"/>
      <use x="328.019531" xlink:href="#DejaVuSans-114"/>
      <use x="369.132812" xlink:href="#DejaVuSans-97"/>
      <use x="430.412109" xlink:href="#DejaVuSans-116"/>
      <use x="469.621094" xlink:href="#DejaVuSans-117"/>
      <use x="533" xlink:href="#DejaVuSans-114"/>
      <use x="571.863281" xlink:href="#DejaVuSans-101"/>
      <use x="633.386719" xlink:href="#DejaVuSans-32"/>
      <use x="665.173828" xlink:href="#DejaVuSans-91"/>
      <use x="704.1875" xlink:href="#DejaVuSans-176"/>
      <use x="754.1875" xlink:href="#DejaVuSans-67"/>
      <use x="824.011719" xlink:href="#DejaVuSans-93"/>
     </g>
    </g>
   </g>
   <g id="matplotlib.axis_2">
    <g id="ytick_1">
     <g id="line2d_6">
      <defs>
       <path d="M 0 0 
L -3.5 0 
" id="mc7e44a1781" style="stroke:#000000;stroke-width:0.8;"/>
      </defs>
      <g>
       <use style="stroke:#000000;stroke-width:0.8;" x="45" xlink:href="#mc7e44a1781" y="315"/>
      </g>
     </g>
     <g id="text_7">
      <!-- 0.00 -->
      <g transform="translate(4.601562 320.698828)scale(0.15 -0.15)">
       <defs>
        <path d="M 10.6875 12.40625 
L 21 12.40625 
L 21 0 
L 10.6875 0 
z
" id="DejaVuSans-46"/>
       </defs>
       <use xlink:href="#DejaVuSans-48"/>
       <use x="63.623047" xlink:href="#DejaVuSans-46"/>
       <use x="95.410156" xlink:href="#DejaVuSans-48"/>
       <use x="159.033203" xlink:href="#DejaVuSans-48"/>
      </g>
     </g>
    </g>
    <g id="ytick_2">
     <g id="line2d_7">
      <g>
       <use style="stroke:#000000;stroke-width:0.8;" x="45" xlink:href="#mc7e44a1781" y="235.058824"/>
      </g>
     </g>
     <g id="text_8">
      <!-- 0.05 -->
      <g transform="translate(4.601562 240.757652)scale(0.15 -0.15)">
       <defs>
        <path d="M 10.796875 72.90625 
L 49.515625 72.90625 
L 49.515625 64.59375 
L 19.828125 64.59375 
L 19.828125 46.734375 
Q 21.96875 47.46875 24.109375 47.828125 
Q 26.265625 48.1875 28.421875 48.1875 
Q 40.625 48.1875 47.75 41.5 
Q 54.890625 34.8125 54.890625 23.390625 
Q 54.890625 11.625 47.5625 5.09375 
Q 40.234375 -1.421875 26.90625 -1.421875 
Q 22.3125 -1.421875 17.546875 -0.640625 
Q 12.796875 0.140625 7.71875 1.703125 
L 7.71875 11.625 
Q 12.109375 9.234375 16.796875 8.0625 
Q 21.484375 6.890625 26.703125 6.890625 
Q 35.15625 6.890625 40.078125 11.328125 
Q 45.015625 15.765625 45.015625 23.390625 
Q 45.015625 31 40.078125 35.4375 
Q 35.15625 39.890625 26.703125 39.890625 
Q 22.75 39.890625 18.8125 39.015625 
Q 14.890625 38.140625 10.796875 36.28125 
z
" id="DejaVuSans-53"/>
       </defs>
       <use xlink:href="#DejaVuSans-48"/>
       <use x="63.623047" xlink:href="#DejaVuSans-46"/>
       <use x="95.410156" xlink:href="#DejaVuSans-48"/>
       <use x="159.033203" xlink:href="#DejaVuSans-53"/>
      </g>
     </g>
    </g>
    <g id="ytick_3">
     <g id="line2d_8">
      <g>
       <use style="stroke:#000000;stroke-width:0.8;" x="45" xlink:href="#mc7e44a1781" y="155.117647"/>
      </g>
     </g>
     <g id="text_9">
      <!-- 0.10 -->
      <g transform="translate(4.601562 160.816475)scale(0.15 -0.15)">
       <defs>
        <path d="M 12.40625 8.296875 
L 28.515625 8.296875 
L 28.515625 63.921875 
L 10.984375 60.40625 
L 10.984375 69.390625 
L 28.421875 72.90625 
L 38.28125 72.90625 
L 38.28125 8.296875 
L 54.390625 8.296875 
L 54.390625 0 
L 12.40625 0 
z
" id="DejaVuSans-49"/>
       </defs>
       <use xlink:href="#DejaVuSans-48"/>
       <use x="63.623047" xlink:href="#DejaVuSans-46"/>
       <use x="95.410156" xlink:href="#DejaVuSans-49"/>
       <use x="159.033203" xlink:href="#DejaVuSans-48"/>
      </g>
     </g>
    </g>
    <g id="ytick_4">
     <g id="line2d_9">
      <g>
       <use style="stroke:#000000;stroke-width:0.8;" x="45" xlink:href="#mc7e44a1781" y="75.176471"/>
      </g>
     </g>
     <g id="text_10">
      <!-- 0.15 -->
      <g transform="translate(4.601562 80.875299)scale(0.15 -0.15)">
       <use xlink:href="#DejaVuSans-48"/>
       <use x="63.623047" xlink:href="#DejaVuSans-46"/>
       <use x="95.410156" xlink:href="#DejaVuSans-49"/>
       <use x="159.033203" xlink:href="#DejaVuSans-53"/>
      </g>
     </g>
    </g>
    <g id="text_11">
     <!-- Evaporating ratio to water [mol/mol] -->
     <g transform="translate(-2.517969 316.501172)rotate(-90)scale(0.15 -0.15)">
      <defs>
       <path d="M 9.8125 72.90625 
L 55.90625 72.90625 
L 55.90625 64.59375 
L 19.671875 64.59375 
L 19.671875 43.015625 
L 54.390625 43.015625 
L 54.390625 34.71875 
L 19.671875 34.71875 
L 19.671875 8.296875 
L 56.78125 8.296875 
L 56.78125 0 
L 9.8125 0 
z
" id="DejaVuSans-69"/>
       <path d="M 2.984375 54.6875 
L 12.5 54.6875 
L 29.59375 8.796875 
L 46.6875 54.6875 
L 56.203125 54.6875 
L 35.6875 0 
L 23.484375 0 
z
" id="DejaVuSans-118"/>
       <path d="M 30.609375 48.390625 
Q 23.390625 48.390625 19.1875 42.75 
Q 14.984375 37.109375 14.984375 27.296875 
Q 14.984375 17.484375 19.15625 11.84375 
Q 23.34375 6.203125 30.609375 6.203125 
Q 37.796875 6.203125 41.984375 11.859375 
Q 46.1875 17.53125 46.1875 27.296875 
Q 46.1875 37.015625 41.984375 42.703125 
Q 37.796875 48.390625 30.609375 48.390625 
z
M 30.609375 56 
Q 42.328125 56 49.015625 48.375 
Q 55.71875 40.765625 55.71875 27.296875 
Q 55.71875 13.875 49.015625 6.21875 
Q 42.328125 -1.421875 30.609375 -1.421875 
Q 18.84375 -1.421875 12.171875 6.21875 
Q 5.515625 13.875 5.515625 27.296875 
Q 5.515625 40.765625 12.171875 48.375 
Q 18.84375 56 30.609375 56 
z
" id="DejaVuSans-111"/>
       <path d="M 9.421875 54.6875 
L 18.40625 54.6875 
L 18.40625 0 
L 9.421875 0 
z
M 9.421875 75.984375 
L 18.40625 75.984375 
L 18.40625 64.59375 
L 9.421875 64.59375 
z
" id="DejaVuSans-105"/>
       <path d="M 54.890625 33.015625 
L 54.890625 0 
L 45.90625 0 
L 45.90625 32.71875 
Q 45.90625 40.484375 42.875 44.328125 
Q 39.84375 48.1875 33.796875 48.1875 
Q 26.515625 48.1875 22.3125 43.546875 
Q 18.109375 38.921875 18.109375 30.90625 
L 18.109375 0 
L 9.078125 0 
L 9.078125 54.6875 
L 18.109375 54.6875 
L 18.109375 46.1875 
Q 21.34375 51.125 25.703125 53.5625 
Q 30.078125 56 35.796875 56 
Q 45.21875 56 50.046875 50.171875 
Q 54.890625 44.34375 54.890625 33.015625 
z
" id="DejaVuSans-110"/>
       <path d="M 45.40625 27.984375 
Q 45.40625 37.75 41.375 43.109375 
Q 37.359375 48.484375 30.078125 48.484375 
Q 22.859375 48.484375 18.828125 43.109375 
Q 14.796875 37.75 14.796875 27.984375 
Q 14.796875 18.265625 18.828125 12.890625 
Q 22.859375 7.515625 30.078125 7.515625 
Q 37.359375 7.515625 41.375 12.890625 
Q 45.40625 18.265625 45.40625 27.984375 
z
M 54.390625 6.78125 
Q 54.390625 -7.171875 48.1875 -13.984375 
Q 42 -20.796875 29.203125 -20.796875 
Q 24.46875 -20.796875 20.265625 -20.09375 
Q 16.0625 -19.390625 12.109375 -17.921875 
L 12.109375 -9.1875 
Q 16.0625 -11.328125 19.921875 -12.34375 
Q 23.78125 -13.375 27.78125 -13.375 
Q 36.625 -13.375 41.015625 -8.765625 
Q 45.40625 -4.15625 45.40625 5.171875 
L 45.40625 9.625 
Q 42.625 4.78125 38.28125 2.390625 
Q 33.9375 0 27.875 0 
Q 17.828125 0 11.671875 7.65625 
Q 5.515625 15.328125 5.515625 27.984375 
Q 5.515625 40.671875 11.671875 48.328125 
Q 17.828125 56 27.875 56 
Q 33.9375 56 38.28125 53.609375 
Q 42.625 51.21875 45.40625 46.390625 
L 45.40625 54.6875 
L 54.390625 54.6875 
z
" id="DejaVuSans-103"/>
       <path d="M 4.203125 54.6875 
L 13.1875 54.6875 
L 24.421875 12.015625 
L 35.59375 54.6875 
L 46.1875 54.6875 
L 57.421875 12.015625 
L 68.609375 54.6875 
L 77.59375 54.6875 
L 63.28125 0 
L 52.6875 0 
L 40.921875 44.828125 
L 29.109375 0 
L 18.5 0 
z
" id="DejaVuSans-119"/>
       <path d="M 9.421875 75.984375 
L 18.40625 75.984375 
L 18.40625 0 
L 9.421875 0 
z
" id="DejaVuSans-108"/>
       <path d="M 25.390625 72.90625 
L 33.6875 72.90625 
L 8.296875 -9.28125 
L 0 -9.28125 
z
" id="DejaVuSans-47"/>
      </defs>
      <use xlink:href="#DejaVuSans-69"/>
      <use x="63.183594" xlink:href="#DejaVuSans-118"/>
      <use x="122.363281" xlink:href="#DejaVuSans-97"/>
      <use x="183.642578" xlink:href="#DejaVuSans-112"/>
      <use x="247.119141" xlink:href="#DejaVuSans-111"/>
      <use x="308.300781" xlink:href="#DejaVuSans-114"/>
      <use x="349.414062" xlink:href="#DejaVuSans-97"/>
      <use x="410.693359" xlink:href="#DejaVuSans-116"/>
      <use x="449.902344" xlink:href="#DejaVuSans-105"/>
      <use x="477.685547" xlink:href="#DejaVuSans-110"/>
      <use x="541.064453" xlink:href="#DejaVuSans-103"/>
      <use x="604.541016" xlink:href="#DejaVuSans-32"/>
      <use x="636.328125" xlink:href="#DejaVuSans-114"/>
      <use x="677.441406" xlink:href="#DejaVuSans-97"/>
      <use x="738.720703" xlink:href="#DejaVuSans-116"/>
      <use x="777.929688" xlink:href="#DejaVuSans-105"/>
      <use x="805.712891" xlink:href="#DejaVuSans-111"/>
      <use x="866.894531" xlink:href="#DejaVuSans-32"/>
      <use x="898.681641" xlink:href="#DejaVuSans-116"/>
      <use x="937.890625" xlink:href="#DejaVuSans-111"/>
      <use x="999.072266" xlink:href="#DejaVuSans-32"/>
      <use x="1030.859375" xlink:href="#DejaVuSans-119"/>
      <use x="1112.646484" xlink:href="#DejaVuSans-97"/>
      <use x="1173.925781" xlink:href="#DejaVuSans-116"/>
      <use x="1213.134766" xlink:href="#DejaVuSans-101"/>
      <use x="1274.658203" xlink:href="#DejaVuSans-114"/>
      <use x="1315.771484" xlink:href="#DejaVuSans-32"/>
      <use x="1347.558594" xlink:href="#DejaVuSans-91"/>
      <use x="1386.572266" xlink:href="#DejaVuSans-109"/>
      <use x="1483.984375" xlink:href="#DejaVuSans-111"/>
      <use x="1545.166016" xlink:href="#DejaVuSans-108"/>
      <use x="1572.949219" xlink:href="#DejaVuSans-47"/>
      <use x="1606.640625" xlink:href="#DejaVuSans-109"/>
      <use x="1704.052734" xlink:href="#DejaVuSans-111"/>
      <use x="1765.234375" xlink:href="#DejaVuSans-108"/>
      <use x="1793.017578" xlink:href="#DejaVuSans-93"/>
     </g>
    </g>
   </g>
   <g id="line2d_10">
    <path clip-path="url(#p9be3d824b7)" d="M 45 85.720387 
L 48.4875 90.097306 
L 51.975 94.359761 
L 55.4625 98.511433 
L 58.95 102.555865 
L 62.4375 106.496469 
L 65.925 110.336526 
L 69.4125 114.079197 
L 72.9 117.727529 
L 76.3875 121.284453 
L 79.875 124.752794 
L 83.3625 128.135277 
L 86.85 131.434526 
L 90.3375 134.653072 
L 93.825 137.793354 
L 97.3125 140.857725 
L 100.8 143.848456 
L 104.2875 146.767737 
L 107.775 149.617681 
L 111.2625 152.400328 
L 114.75 155.117647 
L 118.2375 157.77154 
L 121.725 160.363843 
L 125.2125 162.896328 
L 128.7 165.37071 
L 132.1875 167.788644 
L 135.675 170.15173 
L 139.1625 172.461514 
L 142.65 174.71949 
L 146.1375 176.927104 
L 149.625 179.085754 
L 153.1125 181.196792 
L 156.6 183.261525 
L 160.0875 185.28122 
L 163.575 187.2571 
L 167.0625 189.19035 
L 170.55 191.082118 
L 174.0375 192.933515 
L 177.525 194.745616 
L 181.0125 196.519462 
L 184.5 198.256064 
L 187.9875 199.956397 
L 191.475 201.621409 
L 194.9625 203.252018 
L 198.45 204.849114 
L 201.9375 206.413558 
L 205.425 207.946187 
L 208.9125 209.447811 
L 212.4 210.919216 
L 215.8875 212.361165 
L 219.375 213.774397 
L 222.8625 215.159629 
L 226.35 216.517559 
L 229.8375 217.848862 
L 233.325 219.154193 
L 236.8125 220.43419 
L 240.3 221.68947 
L 243.7875 222.920633 
L 247.275 224.128263 
L 250.7625 225.312926 
L 254.25 226.475171 
L 257.7375 227.615533 
L 261.225 228.73453 
L 264.7125 229.832668 
L 268.2 230.910437 
L 271.6875 231.968312 
L 275.175 233.006758 
L 278.6625 234.026224 
L 282.15 235.02715 
L 285.6375 236.00996 
L 289.125 236.975068 
L 292.6125 237.922879 
L 296.1 238.853784 
L 299.5875 239.768163 
L 303.075 240.66639 
L 306.5625 241.548824 
L 310.05 242.415817 
L 313.5375 243.267712 
L 317.025 244.104841 
L 320.5125 244.927529 
L 324 245.736093 
" style="fill:none;stroke:#1f77b4;stroke-linecap:square;stroke-width:1.5;"/>
   </g>
   <g id="line2d_11">
    <path clip-path="url(#p9be3d824b7)" d="M 45 307.282517 
L 48.4875 307.175173 
L 51.975 307.067132 
L 55.4625 306.958399 
L 58.95 306.848976 
L 62.4375 306.738866 
L 65.925 306.628075 
L 69.4125 306.516604 
L 72.9 306.404458 
L 76.3875 306.29164 
L 79.875 306.178154 
L 83.3625 306.064003 
L 86.85 305.949191 
L 90.3375 305.833723 
L 93.825 305.7176 
L 97.3125 305.600828 
L 100.8 305.48341 
L 104.2875 305.36535 
L 107.775 305.246651 
L 111.2625 305.127318 
L 114.75 305.007353 
L 118.2375 304.886761 
L 121.725 304.765546 
L 125.2125 304.643711 
L 128.7 304.521261 
L 132.1875 304.398199 
L 135.675 304.274529 
L 139.1625 304.150254 
L 142.65 304.02538 
L 146.1375 303.899909 
L 149.625 303.773845 
L 153.1125 303.647193 
L 156.6 303.519956 
L 160.0875 303.392139 
L 163.575 303.263744 
L 167.0625 303.134776 
L 170.55 303.00524 
L 174.0375 302.875138 
L 177.525 302.744475 
L 181.0125 302.613254 
L 184.5 302.48148 
L 187.9875 302.349156 
L 191.475 302.216287 
L 194.9625 302.082876 
L 198.45 301.948928 
L 201.9375 301.814445 
L 205.425 301.679432 
L 208.9125 301.543894 
L 212.4 301.407833 
L 215.8875 301.271254 
L 219.375 301.134161 
L 222.8625 300.996557 
L 226.35 300.858447 
L 229.8375 300.719833 
L 233.325 300.580722 
L 236.8125 300.441115 
L 240.3 300.301017 
L 243.7875 300.160432 
L 247.275 300.019363 
L 250.7625 299.877816 
L 254.25 299.735792 
L 257.7375 299.593297 
L 261.225 299.450333 
L 264.7125 299.306906 
L 268.2 299.163018 
L 271.6875 299.018674 
L 275.175 298.873876 
L 278.6625 298.72863 
L 282.15 298.582939 
L 285.6375 298.436806 
L 289.125 298.290236 
L 292.6125 298.143231 
L 296.1 297.995797 
L 299.5875 297.847935 
L 303.075 297.699652 
L 306.5625 297.550949 
L 310.05 297.40183 
L 313.5375 297.2523 
L 317.025 297.102362 
L 320.5125 296.95202 
L 324 296.801277 
" style="fill:none;stroke:#ff7f0e;stroke-linecap:square;stroke-width:1.5;"/>
   </g>
   <g id="line2d_12">
    <path clip-path="url(#p9be3d824b7)" d="M 45 213.927453 
L 48.4875 214.800315 
L 51.975 215.659376 
L 55.4625 216.50493 
L 58.95 217.337262 
L 62.4375 218.156652 
L 65.925 218.963369 
L 69.4125 219.75768 
L 72.9 220.53984 
L 76.3875 221.3101 
L 79.875 222.068705 
L 83.3625 222.815893 
L 86.85 223.551895 
L 90.3375 224.276938 
L 93.825 224.991243 
L 97.3125 225.695024 
L 100.8 226.388491 
L 104.2875 227.071849 
L 107.775 227.745297 
L 111.2625 228.409029 
L 114.75 229.063235 
L 118.2375 229.708101 
L 121.725 230.343807 
L 125.2125 230.97053 
L 128.7 231.588441 
L 132.1875 232.197709 
L 135.675 232.798498 
L 139.1625 233.390968 
L 142.65 233.975276 
L 146.1375 234.551573 
L 149.625 235.12001 
L 153.1125 235.680732 
L 156.6 236.233882 
L 160.0875 236.779598 
L 163.575 237.318016 
L 167.0625 237.84927 
L 170.55 238.373489 
L 174.0375 238.8908 
L 177.525 239.401327 
L 181.0125 239.905191 
L 184.5 240.402511 
L 187.9875 240.893402 
L 191.475 241.377979 
L 194.9625 241.856351 
L 198.45 242.328628 
L 201.9375 242.794915 
L 205.425 243.255317 
L 208.9125 243.709933 
L 212.4 244.158865 
L 215.8875 244.602209 
L 219.375 245.04006 
L 222.8625 245.472511 
L 226.35 245.899654 
L 229.8375 246.321577 
L 233.325 246.738369 
L 236.8125 247.150113 
L 240.3 247.556895 
L 243.7875 247.958796 
L 247.275 248.355896 
L 250.7625 248.748274 
L 254.25 249.136007 
L 257.7375 249.519171 
L 261.225 249.897839 
L 264.7125 250.272083 
L 268.2 250.641975 
L 271.6875 251.007585 
L 275.175 251.36898 
L 278.6625 251.726226 
L 282.15 252.079391 
L 285.6375 252.428537 
L 289.125 252.773727 
L 292.6125 253.115024 
L 296.1 253.452487 
L 299.5875 253.786176 
L 303.075 254.116149 
L 306.5625 254.442463 
L 310.05 254.765174 
L 313.5375 255.084337 
L 317.025 255.400005 
L 320.5125 255.712232 
L 324 256.021068 
" style="fill:none;stroke:#2ca02c;stroke-linecap:square;stroke-width:1.5;"/>
   </g>
   <g id="line2d_13">
    <path clip-path="url(#p9be3d824b7)" d="M 45 275.183383 
L 48.4875 275.247285 
L 51.975 275.310621 
L 55.4625 275.373399 
L 58.95 275.435626 
L 62.4375 275.497308 
L 65.925 275.558454 
L 69.4125 275.619069 
L 72.9 275.679161 
L 76.3875 275.738736 
L 79.875 275.797801 
L 83.3625 275.856362 
L 86.85 275.914427 
L 90.3375 275.972 
L 93.825 276.029088 
L 97.3125 276.085697 
L 100.8 276.141833 
L 104.2875 276.197503 
L 107.775 276.25271 
L 111.2625 276.307463 
L 114.75 276.361765 
L 118.2375 276.415622 
L 121.725 276.46904 
L 125.2125 276.522025 
L 128.7 276.57458 
L 132.1875 276.626712 
L 135.675 276.678425 
L 139.1625 276.729725 
L 142.65 276.780616 
L 146.1375 276.831103 
L 149.625 276.881191 
L 153.1125 276.930885 
L 156.6 276.980189 
L 160.0875 277.029107 
L 163.575 277.077645 
L 167.0625 277.125806 
L 170.55 277.173595 
L 174.0375 277.221016 
L 177.525 277.268073 
L 181.0125 277.314771 
L 184.5 277.361114 
L 187.9875 277.407104 
L 191.475 277.452748 
L 194.9625 277.498048 
L 198.45 277.543007 
L 201.9375 277.587631 
L 205.425 277.631923 
L 208.9125 277.675886 
L 212.4 277.719524 
L 215.8875 277.76284 
L 219.375 277.805839 
L 222.8625 277.848523 
L 226.35 277.890896 
L 229.8375 277.932961 
L 233.325 277.974722 
L 236.8125 278.016181 
L 240.3 278.057343 
L 243.7875 278.09821 
L 247.275 278.138785 
L 250.7625 278.179072 
L 254.25 278.219074 
L 257.7375 278.258792 
L 261.225 278.298232 
L 264.7125 278.337395 
L 268.2 278.376284 
L 271.6875 278.414902 
L 275.175 278.453252 
L 278.6625 278.491336 
L 282.15 278.529158 
L 285.6375 278.56672 
L 289.125 278.604025 
L 292.6125 278.641075 
L 296.1 278.677874 
L 299.5875 278.714422 
L 303.075 278.750724 
L 306.5625 278.786781 
L 310.05 278.822596 
L 313.5375 278.858171 
L 317.025 278.893509 
L 320.5125 278.928612 
L 324 278.963482 
" style="fill:none;stroke:#d62728;stroke-linecap:square;stroke-width:1.5;"/>
   </g>
   <g id="line2d_14">
    <path clip-path="url(#p9be3d824b7)" d="M 45 303.185075 
L 48.4875 303.108922 
L 51.975 303.032837 
L 55.4625 302.956821 
L 58.95 302.880876 
L 62.4375 302.805004 
L 65.925 302.729206 
L 69.4125 302.653482 
L 72.9 302.577835 
L 76.3875 302.502265 
L 79.875 302.426775 
L 83.3625 302.351364 
L 86.85 302.276035 
L 90.3375 302.200789 
L 93.825 302.125626 
L 97.3125 302.050548 
L 100.8 301.975556 
L 104.2875 301.900651 
L 107.775 301.825835 
L 111.2625 301.751108 
L 114.75 301.676471 
L 118.2375 301.601925 
L 121.725 301.527471 
L 125.2125 301.453111 
L 128.7 301.378845 
L 132.1875 301.304675 
L 135.675 301.2306 
L 139.1625 301.156622 
L 142.65 301.082742 
L 146.1375 301.00896 
L 149.625 300.935279 
L 153.1125 300.861697 
L 156.6 300.788216 
L 160.0875 300.714838 
L 163.575 300.641562 
L 167.0625 300.568389 
L 170.55 300.495321 
L 174.0375 300.422357 
L 177.525 300.349499 
L 181.0125 300.276746 
L 184.5 300.204101 
L 187.9875 300.131563 
L 191.475 300.059134 
L 194.9625 299.986813 
L 198.45 299.914601 
L 201.9375 299.842499 
L 205.425 299.770508 
L 208.9125 299.698628 
L 212.4 299.626859 
L 215.8875 299.555202 
L 219.375 299.483658 
L 222.8625 299.412227 
L 226.35 299.34091 
L 229.8375 299.269706 
L 233.325 299.198617 
L 236.8125 299.127643 
L 240.3 299.056785 
L 243.7875 298.986042 
L 247.275 298.915415 
L 250.7625 298.844905 
L 254.25 298.774512 
L 257.7375 298.704236 
L 261.225 298.634078 
L 264.7125 298.564039 
L 268.2 298.494117 
L 271.6875 298.424314 
L 275.175 298.35463 
L 278.6625 298.285066 
L 282.15 298.215621 
L 285.6375 298.146296 
L 289.125 298.077092 
L 292.6125 298.008008 
L 296.1 297.939044 
L 299.5875 297.870202 
L 303.075 297.801481 
L 306.5625 297.732881 
L 310.05 297.664403 
L 313.5375 297.596047 
L 317.025 297.527813 
L 320.5125 297.459701 
L 324 297.391712 
" style="fill:none;stroke:#9467bd;stroke-linecap:square;stroke-width:1.5;"/>
   </g>
   <g id="line2d_15">
    <path clip-path="url(#p9be3d824b7)" d="M 45 312.051551 
L 48.4875 312.008619 
L 51.975 311.965381 
L 55.4625 311.921838 
L 58.95 311.877991 
L 62.4375 311.833842 
L 65.925 311.789391 
L 69.4125 311.74464 
L 72.9 311.699591 
L 76.3875 311.654244 
L 79.875 311.6086 
L 83.3625 311.562662 
L 86.85 311.516431 
L 90.3375 311.469907 
L 93.825 311.423093 
L 97.3125 311.375989 
L 100.8 311.328597 
L 104.2875 311.280918 
L 107.775 311.232954 
L 111.2625 311.184707 
L 114.75 311.136176 
L 118.2375 311.087365 
L 121.725 311.038274 
L 125.2125 310.988905 
L 128.7 310.93926 
L 132.1875 310.889339 
L 135.675 310.839144 
L 139.1625 310.788677 
L 142.65 310.737939 
L 146.1375 310.686931 
L 149.625 310.635656 
L 153.1125 310.584115 
L 156.6 310.532308 
L 160.0875 310.480238 
L 163.575 310.427907 
L 167.0625 310.375314 
L 170.55 310.322463 
L 174.0375 310.269355 
L 177.525 310.215991 
L 181.0125 310.162373 
L 184.5 310.108501 
L 187.9875 310.054379 
L 191.475 310.000007 
L 194.9625 309.945387 
L 198.45 309.89052 
L 201.9375 309.835408 
L 205.425 309.780053 
L 208.9125 309.724456 
L 212.4 309.668618 
L 215.8875 309.612542 
L 219.375 309.556228 
L 222.8625 309.499679 
L 226.35 309.442895 
L 229.8375 309.385879 
L 233.325 309.328632 
L 236.8125 309.271155 
L 240.3 309.21345 
L 243.7875 309.155519 
L 247.275 309.097363 
L 250.7625 309.038984 
L 254.25 308.980383 
L 257.7375 308.921562 
L 261.225 308.862522 
L 264.7125 308.803265 
L 268.2 308.743793 
L 271.6875 308.684107 
L 275.175 308.624208 
L 278.6625 308.564098 
L 282.15 308.50378 
L 285.6375 308.443253 
L 289.125 308.38252 
L 292.6125 308.321582 
L 296.1 308.260442 
L 299.5875 308.199099 
L 303.075 308.137557 
L 306.5625 308.075816 
L 310.05 308.013878 
L 313.5375 307.951744 
L 317.025 307.889416 
L 320.5125 307.826896 
L 324 307.764185 
" style="fill:none;stroke:#8c564b;stroke-linecap:square;stroke-width:1.5;"/>
   </g>
   <g id="line2d_16">
    <path clip-path="url(#p9be3d824b7)" d="M 45 223.335269 
L 48.4875 224.650827 
L 51.975 225.938146 
L 55.4625 227.197999 
L 58.95 228.43113 
L 62.4375 229.638262 
L 65.925 230.820092 
L 69.4125 231.977297 
L 72.9 233.110531 
L 76.3875 234.220428 
L 79.875 235.3076 
L 83.3625 236.372642 
L 86.85 237.41613 
L 90.3375 238.43862 
L 93.825 239.440653 
L 97.3125 240.422752 
L 100.8 241.385425 
L 104.2875 242.329164 
L 107.775 243.254445 
L 111.2625 244.161731 
L 114.75 245.051471 
L 118.2375 245.924099 
L 121.725 246.780037 
L 125.2125 247.619696 
L 128.7 248.443473 
L 132.1875 249.251754 
L 135.675 250.044912 
L 139.1625 250.823312 
L 142.65 251.587308 
L 146.1375 252.337241 
L 149.625 253.073444 
L 153.1125 253.796243 
L 156.6 254.50595 
L 160.0875 255.202871 
L 163.575 255.887304 
L 167.0625 256.559536 
L 170.55 257.219849 
L 174.0375 257.868514 
L 177.525 258.505798 
L 181.0125 259.131958 
L 184.5 259.747245 
L 187.9875 260.351903 
L 191.475 260.946169 
L 194.9625 261.530274 
L 198.45 262.104444 
L 201.9375 262.668897 
L 205.425 263.223845 
L 208.9125 263.769497 
L 212.4 264.306053 
L 215.8875 264.833711 
L 219.375 265.352662 
L 222.8625 265.863092 
L 226.35 266.365182 
L 229.8375 266.859111 
L 233.325 267.345049 
L 236.8125 267.823165 
L 240.3 268.293623 
L 243.7875 268.756581 
L 247.275 269.212196 
L 250.7625 269.660619 
L 254.25 270.101998 
L 257.7375 270.536477 
L 261.225 270.964196 
L 264.7125 271.385292 
L 268.2 271.799899 
L 271.6875 272.208147 
L 275.175 272.610164 
L 278.6625 273.006074 
L 282.15 273.395997 
L 285.6375 273.780052 
L 289.125 274.158354 
L 292.6125 274.531016 
L 296.1 274.898147 
L 299.5875 275.259856 
L 303.075 275.616246 
L 306.5625 275.96742 
L 310.05 276.313478 
L 313.5375 276.654518 
L 317.025 276.990634 
L 320.5125 277.32192 
L 324 277.648467 
" style="fill:none;stroke:#e377c2;stroke-linecap:square;stroke-width:1.5;"/>
   </g>
   <g id="line2d_17">
    <path clip-path="url(#p9be3d824b7)" style="fill:none;stroke:#7f7f7f;stroke-linecap:square;stroke-width:1.5;"/>
   </g>
   <g id="line2d_18">
    <path clip-path="url(#p9be3d824b7)" d="M 45 314.765193 
L 48.4875 314.75908 
L 51.975 314.752855 
L 55.4625 314.746515 
L 58.95 314.740061 
L 62.4375 314.73349 
L 65.925 314.726802 
L 69.4125 314.719996 
L 72.9 314.71307 
L 76.3875 314.706024 
L 79.875 314.698856 
L 83.3625 314.691566 
L 86.85 314.684153 
L 90.3375 314.676615 
L 93.825 314.668952 
L 97.3125 314.661162 
L 100.8 314.653244 
L 104.2875 314.645198 
L 107.775 314.637023 
L 111.2625 314.628717 
L 114.75 314.620279 
L 118.2375 314.61171 
L 121.725 314.603006 
L 125.2125 314.594169 
L 128.7 314.585196 
L 132.1875 314.576087 
L 135.675 314.566841 
L 139.1625 314.557457 
L 142.65 314.547934 
L 146.1375 314.538271 
L 149.625 314.528468 
L 153.1125 314.518522 
L 156.6 314.508435 
L 160.0875 314.498203 
L 163.575 314.487828 
L 167.0625 314.477308 
L 170.55 314.466641 
L 174.0375 314.455828 
L 177.525 314.444867 
L 181.0125 314.433758 
L 184.5 314.422499 
L 187.9875 314.411091 
L 191.475 314.399532 
L 194.9625 314.387821 
L 198.45 314.375957 
L 201.9375 314.363941 
L 205.425 314.351771 
L 208.9125 314.339446 
L 212.4 314.326965 
L 215.8875 314.314329 
L 219.375 314.301535 
L 222.8625 314.288585 
L 226.35 314.275475 
L 229.8375 314.262207 
L 233.325 314.24878 
L 236.8125 314.235192 
L 240.3 314.221443 
L 243.7875 314.207532 
L 247.275 314.193459 
L 250.7625 314.179223 
L 254.25 314.164824 
L 257.7375 314.15026 
L 261.225 314.135532 
L 264.7125 314.120638 
L 268.2 314.105579 
L 271.6875 314.090353 
L 275.175 314.074959 
L 278.6625 314.059399 
L 282.15 314.043669 
L 285.6375 314.027771 
L 289.125 314.011704 
L 292.6125 313.995467 
L 296.1 313.97906 
L 299.5875 313.962481 
L 303.075 313.945732 
L 306.5625 313.92881 
L 310.05 313.911716 
L 313.5375 313.894449 
L 317.025 313.87701 
L 320.5125 313.859396 
L 324 313.841608 
" style="fill:none;stroke:#bcbd22;stroke-linecap:square;stroke-width:1.5;"/>
   </g>
   <g id="line2d_19">
    <path clip-path="url(#p9be3d824b7)" d="M 45 314.976722 
L 48.4875 314.975376 
L 51.975 314.973963 
L 55.4625 314.97248 
L 58.95 314.970923 
L 62.4375 314.969291 
L 65.925 314.96758 
L 69.4125 314.965787 
L 72.9 314.963909 
L 76.3875 314.961942 
L 79.875 314.959883 
L 83.3625 314.957728 
L 86.85 314.955474 
L 90.3375 314.953116 
L 93.825 314.950651 
L 97.3125 314.948076 
L 100.8 314.945385 
L 104.2875 314.942574 
L 107.775 314.93964 
L 111.2625 314.936578 
L 114.75 314.933382 
L 118.2375 314.930049 
L 121.725 314.926574 
L 125.2125 314.922951 
L 128.7 314.919176 
L 132.1875 314.915242 
L 135.675 314.911146 
L 139.1625 314.906881 
L 142.65 314.902441 
L 146.1375 314.897822 
L 149.625 314.893016 
L 153.1125 314.888018 
L 156.6 314.882822 
L 160.0875 314.877421 
L 163.575 314.871809 
L 167.0625 314.865978 
L 170.55 314.859923 
L 174.0375 314.853636 
L 177.525 314.84711 
L 181.0125 314.840337 
L 184.5 314.833311 
L 187.9875 314.826023 
L 191.475 314.818466 
L 194.9625 314.810631 
L 198.45 314.802511 
L 201.9375 314.794097 
L 205.425 314.785381 
L 208.9125 314.776354 
L 212.4 314.767007 
L 215.8875 314.757331 
L 219.375 314.747316 
L 222.8625 314.736954 
L 226.35 314.726235 
L 229.8375 314.715149 
L 233.325 314.703686 
L 236.8125 314.691835 
L 240.3 314.679587 
L 243.7875 314.666931 
L 247.275 314.653856 
L 250.7625 314.640351 
L 254.25 314.626405 
L 257.7375 314.612007 
L 261.225 314.597144 
L 264.7125 314.581806 
L 268.2 314.56598 
L 271.6875 314.549654 
L 275.175 314.532816 
L 278.6625 314.515452 
L 282.15 314.497551 
L 285.6375 314.479099 
L 289.125 314.460083 
L 292.6125 314.44049 
L 296.1 314.420305 
L 299.5875 314.399514 
L 303.075 314.378105 
L 306.5625 314.356061 
L 310.05 314.33337 
L 313.5375 314.310015 
L 317.025 314.285982 
L 320.5125 314.261256 
L 324 314.23582 
" style="fill:none;stroke:#17becf;stroke-linecap:square;stroke-width:1.5;"/>
   </g>
   <g id="patch_3">
    <path d="M 45 315 
L 45 43.2 
" style="fill:none;stroke:#000000;stroke-linecap:square;stroke-linejoin:miter;stroke-width:0.8;"/>
   </g>
   <g id="patch_4">
    <path d="M 45 315 
L 324 315 
" style="fill:none;stroke:#000000;stroke-linecap:square;stroke-linejoin:miter;stroke-width:0.8;"/>
   </g>
   <g id="legend_1">
    <g id="patch_5">
     <path d="M 354.9 295.051875 
L 483.541406 295.051875 
Q 486.541406 295.051875 486.541406 292.051875 
L 486.541406 73.38 
Q 486.541406 70.38 483.541406 70.38 
L 354.9 70.38 
Q 351.9 70.38 351.9 73.38 
L 351.9 292.051875 
Q 351.9 295.051875 354.9 295.051875 
z
" style="fill:#ffffff;opacity:0.8;stroke:#cccccc;stroke-linejoin:miter;"/>
    </g>
    <g id="line2d_20">
     <path d="M 357.9 82.527656 
L 361 82.527656 
" style="fill:none;stroke:#1f77b4;stroke-linecap:square;stroke-width:1.5;"/>
    </g>
    <g id="line2d_21"/>
    <g id="text_12">
     <!-- Acetone -->
     <g transform="translate(399.9 87.777656)scale(0.15 -0.15)">
      <defs>
       <path d="M 34.1875 63.1875 
L 20.796875 26.90625 
L 47.609375 26.90625 
z
M 28.609375 72.90625 
L 39.796875 72.90625 
L 67.578125 0 
L 57.328125 0 
L 50.6875 18.703125 
L 17.828125 18.703125 
L 11.1875 0 
L 0.78125 0 
z
" id="DejaVuSans-65"/>
       <path d="M 48.78125 52.59375 
L 48.78125 44.1875 
Q 44.96875 46.296875 41.140625 47.34375 
Q 37.3125 48.390625 33.40625 48.390625 
Q 24.65625 48.390625 19.8125 42.84375 
Q 14.984375 37.3125 14.984375 27.296875 
Q 14.984375 17.28125 19.8125 11.734375 
Q 24.65625 6.203125 33.40625 6.203125 
Q 37.3125 6.203125 41.140625 7.25 
Q 44.96875 8.296875 48.78125 10.40625 
L 48.78125 2.09375 
Q 45.015625 0.34375 40.984375 -0.53125 
Q 36.96875 -1.421875 32.421875 -1.421875 
Q 20.0625 -1.421875 12.78125 6.34375 
Q 5.515625 14.109375 5.515625 27.296875 
Q 5.515625 40.671875 12.859375 48.328125 
Q 20.21875 56 33.015625 56 
Q 37.15625 56 41.109375 55.140625 
Q 45.0625 54.296875 48.78125 52.59375 
z
" id="DejaVuSans-99"/>
      </defs>
      <use xlink:href="#DejaVuSans-65"/>
      <use x="66.658203" xlink:href="#DejaVuSans-99"/>
      <use x="121.638672" xlink:href="#DejaVuSans-101"/>
      <use x="183.162109" xlink:href="#DejaVuSans-116"/>
      <use x="222.371094" xlink:href="#DejaVuSans-111"/>
      <use x="283.552734" xlink:href="#DejaVuSans-110"/>
      <use x="346.931641" xlink:href="#DejaVuSans-101"/>
     </g>
    </g>
    <g id="line2d_22">
     <path d="M 357.9 104.544844 
L 361 104.544844 
" style="fill:none;stroke:#ff7f0e;stroke-linecap:square;stroke-width:1.5;"/>
    </g>
    <g id="line2d_23"/>
    <g id="text_13">
     <!-- Acetate -->
     <g transform="translate(399.9 109.794844)scale(0.15 -0.15)">
      <use xlink:href="#DejaVuSans-65"/>
      <use x="66.658203" xlink:href="#DejaVuSans-99"/>
      <use x="121.638672" xlink:href="#DejaVuSans-101"/>
      <use x="183.162109" xlink:href="#DejaVuSans-116"/>
      <use x="222.371094" xlink:href="#DejaVuSans-97"/>
      <use x="283.650391" xlink:href="#DejaVuSans-116"/>
      <use x="322.859375" xlink:href="#DejaVuSans-101"/>
     </g>
    </g>
    <g id="line2d_24">
     <path d="M 357.9 126.562031 
L 361 126.562031 
" style="fill:none;stroke:#2ca02c;stroke-linecap:square;stroke-width:1.5;"/>
    </g>
    <g id="line2d_25"/>
    <g id="text_14">
     <!-- Methanol -->
     <g transform="translate(399.9 131.812031)scale(0.15 -0.15)">
      <defs>
       <path d="M 9.8125 72.90625 
L 24.515625 72.90625 
L 43.109375 23.296875 
L 61.8125 72.90625 
L 76.515625 72.90625 
L 76.515625 0 
L 66.890625 0 
L 66.890625 64.015625 
L 48.09375 14.015625 
L 38.1875 14.015625 
L 19.390625 64.015625 
L 19.390625 0 
L 9.8125 0 
z
" id="DejaVuSans-77"/>
       <path d="M 54.890625 33.015625 
L 54.890625 0 
L 45.90625 0 
L 45.90625 32.71875 
Q 45.90625 40.484375 42.875 44.328125 
Q 39.84375 48.1875 33.796875 48.1875 
Q 26.515625 48.1875 22.3125 43.546875 
Q 18.109375 38.921875 18.109375 30.90625 
L 18.109375 0 
L 9.078125 0 
L 9.078125 75.984375 
L 18.109375 75.984375 
L 18.109375 46.1875 
Q 21.34375 51.125 25.703125 53.5625 
Q 30.078125 56 35.796875 56 
Q 45.21875 56 50.046875 50.171875 
Q 54.890625 44.34375 54.890625 33.015625 
z
" id="DejaVuSans-104"/>
      </defs>
      <use xlink:href="#DejaVuSans-77"/>
      <use x="86.279297" xlink:href="#DejaVuSans-101"/>
      <use x="147.802734" xlink:href="#DejaVuSans-116"/>
      <use x="187.011719" xlink:href="#DejaVuSans-104"/>
      <use x="250.390625" xlink:href="#DejaVuSans-97"/>
      <use x="311.669922" xlink:href="#DejaVuSans-110"/>
      <use x="375.048828" xlink:href="#DejaVuSans-111"/>
      <use x="436.230469" xlink:href="#DejaVuSans-108"/>
     </g>
    </g>
    <g id="line2d_26">
     <path d="M 357.9 148.579219 
L 361 148.579219 
" style="fill:none;stroke:#d62728;stroke-linecap:square;stroke-width:1.5;"/>
    </g>
    <g id="line2d_27"/>
    <g id="text_15">
     <!-- Ethanol -->
     <g transform="translate(399.9 153.829219)scale(0.15 -0.15)">
      <use xlink:href="#DejaVuSans-69"/>
      <use x="63.183594" xlink:href="#DejaVuSans-116"/>
      <use x="102.392578" xlink:href="#DejaVuSans-104"/>
      <use x="165.771484" xlink:href="#DejaVuSans-97"/>
      <use x="227.050781" xlink:href="#DejaVuSans-110"/>
      <use x="290.429688" xlink:href="#DejaVuSans-111"/>
      <use x="351.611328" xlink:href="#DejaVuSans-108"/>
     </g>
    </g>
    <g id="line2d_28">
     <path d="M 357.9 170.596406 
L 361 170.596406 
" style="fill:none;stroke:#9467bd;stroke-linecap:square;stroke-width:1.5;"/>
    </g>
    <g id="line2d_29"/>
    <g id="text_16">
     <!-- Propanol -->
     <g transform="translate(399.9 175.846406)scale(0.15 -0.15)">
      <defs>
       <path d="M 19.671875 64.796875 
L 19.671875 37.40625 
L 32.078125 37.40625 
Q 38.96875 37.40625 42.71875 40.96875 
Q 46.484375 44.53125 46.484375 51.125 
Q 46.484375 57.671875 42.71875 61.234375 
Q 38.96875 64.796875 32.078125 64.796875 
z
M 9.8125 72.90625 
L 32.078125 72.90625 
Q 44.34375 72.90625 50.609375 67.359375 
Q 56.890625 61.8125 56.890625 51.125 
Q 56.890625 40.328125 50.609375 34.8125 
Q 44.34375 29.296875 32.078125 29.296875 
L 19.671875 29.296875 
L 19.671875 0 
L 9.8125 0 
z
" id="DejaVuSans-80"/>
      </defs>
      <use xlink:href="#DejaVuSans-80"/>
      <use x="58.552734" xlink:href="#DejaVuSans-114"/>
      <use x="97.416016" xlink:href="#DejaVuSans-111"/>
      <use x="158.597656" xlink:href="#DejaVuSans-112"/>
      <use x="222.074219" xlink:href="#DejaVuSans-97"/>
      <use x="283.353516" xlink:href="#DejaVuSans-110"/>
      <use x="346.732422" xlink:href="#DejaVuSans-111"/>
      <use x="407.914062" xlink:href="#DejaVuSans-108"/>
     </g>
    </g>
    <g id="line2d_30">
     <path d="M 357.9 192.613594 
L 361 192.613594 
" style="fill:none;stroke:#8c564b;stroke-linecap:square;stroke-width:1.5;"/>
    </g>
    <g id="line2d_31"/>
    <g id="text_17">
     <!-- Butanol -->
     <g transform="translate(399.9 197.863594)scale(0.15 -0.15)">
      <defs>
       <path d="M 19.671875 34.8125 
L 19.671875 8.109375 
L 35.5 8.109375 
Q 43.453125 8.109375 47.28125 11.40625 
Q 51.125 14.703125 51.125 21.484375 
Q 51.125 28.328125 47.28125 31.5625 
Q 43.453125 34.8125 35.5 34.8125 
z
M 19.671875 64.796875 
L 19.671875 42.828125 
L 34.28125 42.828125 
Q 41.5 42.828125 45.03125 45.53125 
Q 48.578125 48.25 48.578125 53.8125 
Q 48.578125 59.328125 45.03125 62.0625 
Q 41.5 64.796875 34.28125 64.796875 
z
M 9.8125 72.90625 
L 35.015625 72.90625 
Q 46.296875 72.90625 52.390625 68.21875 
Q 58.5 63.53125 58.5 54.890625 
Q 58.5 48.1875 55.375 44.234375 
Q 52.25 40.28125 46.1875 39.3125 
Q 53.46875 37.75 57.5 32.78125 
Q 61.53125 27.828125 61.53125 20.40625 
Q 61.53125 10.640625 54.890625 5.3125 
Q 48.25 0 35.984375 0 
L 9.8125 0 
z
" id="DejaVuSans-66"/>
      </defs>
      <use xlink:href="#DejaVuSans-66"/>
      <use x="68.603516" xlink:href="#DejaVuSans-117"/>
      <use x="131.982422" xlink:href="#DejaVuSans-116"/>
      <use x="171.191406" xlink:href="#DejaVuSans-97"/>
      <use x="232.470703" xlink:href="#DejaVuSans-110"/>
      <use x="295.849609" xlink:href="#DejaVuSans-111"/>
      <use x="357.03125" xlink:href="#DejaVuSans-108"/>
     </g>
    </g>
    <g id="line2d_32">
     <path d="M 357.9 214.630781 
L 361 214.630781 
" style="fill:none;stroke:#e377c2;stroke-linecap:square;stroke-width:1.5;"/>
    </g>
    <g id="line2d_33"/>
    <g id="text_18">
     <!-- Butanone -->
     <g transform="translate(399.9 219.880781)scale(0.15 -0.15)">
      <use xlink:href="#DejaVuSans-66"/>
      <use x="68.603516" xlink:href="#DejaVuSans-117"/>
      <use x="131.982422" xlink:href="#DejaVuSans-116"/>
      <use x="171.191406" xlink:href="#DejaVuSans-97"/>
      <use x="232.470703" xlink:href="#DejaVuSans-110"/>
      <use x="295.849609" xlink:href="#DejaVuSans-111"/>
      <use x="357.03125" xlink:href="#DejaVuSans-110"/>
      <use x="420.410156" xlink:href="#DejaVuSans-101"/>
     </g>
    </g>
    <g id="line2d_34">
     <path d="M 357.9 236.647969 
L 361 236.647969 
" style="fill:none;stroke:#7f7f7f;stroke-linecap:square;stroke-width:1.5;"/>
    </g>
    <g id="line2d_35"/>
    <g id="text_19">
     <!-- Water -->
     <g transform="translate(399.9 241.897969)scale(0.15 -0.15)">
      <defs>
       <path d="M 3.328125 72.90625 
L 13.28125 72.90625 
L 28.609375 11.28125 
L 43.890625 72.90625 
L 54.984375 72.90625 
L 70.3125 11.28125 
L 85.59375 72.90625 
L 95.609375 72.90625 
L 77.296875 0 
L 64.890625 0 
L 49.515625 63.28125 
L 33.984375 0 
L 21.578125 0 
z
" id="DejaVuSans-87"/>
      </defs>
      <use xlink:href="#DejaVuSans-87"/>
      <use x="92.501953" xlink:href="#DejaVuSans-97"/>
      <use x="153.78125" xlink:href="#DejaVuSans-116"/>
      <use x="192.990234" xlink:href="#DejaVuSans-101"/>
      <use x="254.513672" xlink:href="#DejaVuSans-114"/>
     </g>
    </g>
    <g id="line2d_36">
     <path d="M 357.9 258.665156 
L 361 258.665156 
" style="fill:none;stroke:#bcbd22;stroke-linecap:square;stroke-width:1.5;"/>
    </g>
    <g id="line2d_37"/>
    <g id="text_20">
     <!-- Butyrate -->
     <g transform="translate(399.9 263.915156)scale(0.15 -0.15)">
      <defs>
       <path d="M 32.171875 -5.078125 
Q 28.375 -14.84375 24.75 -17.8125 
Q 21.140625 -20.796875 15.09375 -20.796875 
L 7.90625 -20.796875 
L 7.90625 -13.28125 
L 13.1875 -13.28125 
Q 16.890625 -13.28125 18.9375 -11.515625 
Q 21 -9.765625 23.484375 -3.21875 
L 25.09375 0.875 
L 2.984375 54.6875 
L 12.5 54.6875 
L 29.59375 11.921875 
L 46.6875 54.6875 
L 56.203125 54.6875 
z
" id="DejaVuSans-121"/>
      </defs>
      <use xlink:href="#DejaVuSans-66"/>
      <use x="68.603516" xlink:href="#DejaVuSans-117"/>
      <use x="131.982422" xlink:href="#DejaVuSans-116"/>
      <use x="171.191406" xlink:href="#DejaVuSans-121"/>
      <use x="230.371094" xlink:href="#DejaVuSans-114"/>
      <use x="271.484375" xlink:href="#DejaVuSans-97"/>
      <use x="332.763672" xlink:href="#DejaVuSans-116"/>
      <use x="371.972656" xlink:href="#DejaVuSans-101"/>
     </g>
    </g>
    <g id="line2d_38">
     <path d="M 357.9 280.682344 
L 361 280.682344 
" style="fill:none;stroke:#17becf;stroke-linecap:square;stroke-width:1.5;"/>
    </g>
    <g id="line2d_39"/>
    <g id="text_21">
     <!-- Butanediol -->
     <g transform="translate(399.9 285.932344)scale(0.15 -0.15)">
      <defs>
       <path d="M 45.40625 46.390625 
L 45.40625 75.984375 
L 54.390625 75.984375 
L 54.390625 0 
L 45.40625 0 
L 45.40625 8.203125 
Q 42.578125 3.328125 38.25 0.953125 
Q 33.9375 -1.421875 27.875 -1.421875 
Q 17.96875 -1.421875 11.734375 6.484375 
Q 5.515625 14.40625 5.515625 27.296875 
Q 5.515625 40.1875 11.734375 48.09375 
Q 17.96875 56 27.875 56 
Q 33.9375 56 38.25 53.625 
Q 42.578125 51.265625 45.40625 46.390625 
z
M 14.796875 27.296875 
Q 14.796875 17.390625 18.875 11.75 
Q 22.953125 6.109375 30.078125 6.109375 
Q 37.203125 6.109375 41.296875 11.75 
Q 45.40625 17.390625 45.40625 27.296875 
Q 45.40625 37.203125 41.296875 42.84375 
Q 37.203125 48.484375 30.078125 48.484375 
Q 22.953125 48.484375 18.875 42.84375 
Q 14.796875 37.203125 14.796875 27.296875 
z
" id="DejaVuSans-100"/>
      </defs>
      <use xlink:href="#DejaVuSans-66"/>
      <use x="68.603516" xlink:href="#DejaVuSans-117"/>
      <use x="131.982422" xlink:href="#DejaVuSans-116"/>
      <use x="171.191406" xlink:href="#DejaVuSans-97"/>
      <use x="232.470703" xlink:href="#DejaVuSans-110"/>
      <use x="295.849609" xlink:href="#DejaVuSans-101"/>
      <use x="357.373047" xlink:href="#DejaVuSans-100"/>
      <use x="420.849609" xlink:href="#DejaVuSans-105"/>
      <use x="448.632812" xlink:href="#DejaVuSans-111"/>
      <use x="509.814453" xlink:href="#DejaVuSans-108"/>
     </g>
    </g>
   </g>
  </g>
 </g>
 <defs>
  <clipPath id="p9be3d824b7">
   <rect height="271.8" width="279" x="45" y="43.2"/>
  </clipPath>
 </defs>
</svg>
